<svg xmlns="http://www.w3.org/2000/svg" width="920" height="828"><path fill="#fff" stroke="#000" d="M235.67 240.253c-43.113-5.92-78.07 32.075-103.98 60.86-3.52 41.557 53.737 34.155 80.975 33.518 36.32 4.68 70.225-49.63 101.774-15.07 15.13 32.98 15.25 71.89 23.45 107.79 5.55 40.39 8.19 81.1 12.93 121.58 20.94 34.25 16.27 77.96 37.56 112.2 15.8 50.07 71.65 78.82 122.11 68.78 35.2-6.33 69.66-17.57 103.16-29.59 40.58-25.03 42.88-80.68 33.32-122.59-6.17-43.52-9.05-87.58-16.86-130.8-3.95-40.43-17.46-79.37-27.69-118.32-16.61-24.4-3.23-67.91 31.37-46.6 39.75 9.7 80.84 3.95 117.78-12.1 25.36-9.94 55.31-49.65 22.94-69.1-40.32-19.8-87.92-9.7-124.95 12.39-21.63 11.62-63.38 55.87-79.11 28.35 10.642-39.48 32.8-80.26 18.38-121.83 3.84-20.77-30.89-60.34-28.57-19.092-1.67 40.115-2.18 85.01-24.687 119.59-31.54 25.94-75.44 10.28-112.65 13.216-40.21.507-34.678-49.28-41.2-76.753 2.773-25.34-32.69-32.22-28.48-2.27-8.69 34.293 3.51 92.03-41.43 102.503-26.48 2.61-50.9-11.167-76.183-16.617z"/><path fill="#060606" d="M495.75 790.84c-19.085-3.702-33.268-12.5-54.513-33.818-24.352-24.434-44.747-54.1-64.94-94.454-25.116-50.193-34.466-88.588-46.537-191.107-9.053-76.88-15.32-108.41-28.168-141.66-4.263-11.04-5.062-11.73-9.688-8.44-1.46 1.04-6.254 3.7-10.654 5.92-36.702 18.48-82.984 24.54-122.48 16.03-15.475-3.33-31.1-9.71-42.02-17.16-5.073-3.46-15-12.55-15-13.73 0-1.82 28.372-34.47 39.91-45.93 14.08-13.98 23.668-21.03 37.502-27.58 15.01-7.11 22.475-8.74 40.088-8.742 16.036-.01 19.09.47 50.5 7.917 13.873 3.29 17.022 3.68 30 3.79 12.74.104 15.31-.16 21.174-2.19 7.53-2.603 8.212-3.204 10.278-9.06 4.392-12.45 6.2-27.895 8.092-69.136 1.628-35.5 3.166-50.64 6.448-63.47 2.277-8.9 7.39-20.66 10.016-23.04 1.617-1.464 2.056-1.23 5.95 3.2 5.678 6.45 10.534 15.383 14.715 27.08 4.457 12.46 6.242 20.12 11.816 50.73 5.08 27.92 9.9 47 14.35 56.8l2.97 6.55 22.84.01c12.56.01 34.54.53 48.84 1.16 30.74 1.36 45.28.72 48.93-2.15 3.47-2.737 10.89-15.01 14.43-23.876 9.28-23.26 13.43-57.1 11.23-91.63-1.29-20.3-4.29-42.475-7.6-56.157-2.81-11.63-2.09-12.23 6.98-5.76 45.05 32.15 65.63 109.23 44.97 168.51-3.95 11.34-5.83 15.43-11.19 24.34-1.92 3.196-3.21 6.09-2.86 6.44 1.13 1.13 14.853-3.896 25.083-9.19 5.5-2.844 18.324-10.58 28.5-17.183 22.743-14.766 27.99-17.903 39.803-23.8 30.83-15.4 61.11-17.647 94.196-7 17.887 5.755 31.585 13.717 40.32 23.435 6.71 7.46 8.18 11.15 8.18 20.49 0 6.74-.44 8.9-2.8 13.71-12.247 24.94-60.53 47.83-116.86 55.41-23.59 3.17-57.38 1.74-73.52-3.12-2.67-.805-5.155-1.06-5.635-.578-.48.48 3.134 18.457 8.195 40.72 26.727 117.59 36.96 180.08 41.11 250.86 3.073 52.5-1.2 108.01-11.317 147l-1.3 5-11.19 1.638c-21.15 3.083-34.413 8.33-71.68 28.35-26.863 14.43-35.216 18.24-48.5 22.113-8.26 2.41-23.41 3.86-29 2.775zm-56.202-91.023c3.136-2.004 16.052-10.958 28.702-19.897 27.27-19.27 37.584-25.665 55-34.105 29.688-14.385 60.092-20.414 95.25-18.887 10.12.44 15.25.32 15.25-.356 0-.56-1.793-12.627-3.985-26.815-3.755-24.314-7.732-53.486-18.51-135.796-5.594-42.71-11.342-80.76-16.62-110-5.023-27.83-13.61-66.33-15.42-69.15-2.425-3.77-18.04-14.74-28.107-19.73-28.33-14.07-64.173-20.46-108.348-19.32-31.402.81-60.116 5.1-88.51 13.24-18.292 5.24-40.5 13.97-40.5 15.92 0 .22 1.778 3.7 3.95 7.73 5.187 9.62 13.964 31.65 17.88 44.88 9.89 33.4 15.796 67.87 24.146 140.95 7.3 63.89 11.385 92.1 17.15 118.42 8.873 40.51 19.84 68.98 35.702 92.68 6.888 10.29 18.453 23.9 20.31 23.9.526 0 3.524-1.64 6.66-3.64zm-44.798-235.41c-3.902-1.647-8.937-6.973-11.695-12.37-5.102-9.988-1.698-22.294 8.877-32.084 17.254-15.974 39.612-16.352 48.053-.81 3.207 5.902 5.325 18.1 4.314 24.842-.56 3.73-1.18 4.766-3.35 5.59-1.47.556-6.55 3.252-11.29 5.99-4.75 2.74-10.94 5.857-13.76 6.93-6.16 2.34-17.68 3.38-21.16 1.91zm130.728-82.31c-.738-.625-2.554-2.793-4.034-4.818-1.48-2.03-3.55-3.96-4.6-4.29-2.71-.86-3-2.35-1.562-7.99 3.25-12.75 21.137-19.03 29.722-10.44 2.73 2.73 2.884 3.28 2.253 8.16-.95 7.34-4.087 13.43-8.378 16.25-4.67 3.07-11.57 4.67-13.41 3.12zm-310.97-59.646c22.802-4.74 46.76-15.45 67.976-30.39 3.978-2.8 7.24-5.63 7.25-6.28.026-1.91-8.34-2.81-25.484-2.76-28.076.1-54.077 5.78-99 21.66-9.35 3.31-17.622 6.6-18.383 7.32-1.158 1.1-.42 1.8 4.535 4.3 7.325 3.7 17.922 6.97 26.41 8.16 8.837 1.24 25.57.33 36.697-1.99zm487.242-49.87c19.616-4.02 35.715-10.39 49.418-19.56 8.724-5.83 18.366-14.95 16.82-15.91-.524-.32-3.4-.19-6.39.3-5.5.9-21.92 2.14-53.848 4.09-31.19 1.9-47.165 4.96-60.684 11.61-7.404 3.65-17.316 12.09-17.316 14.76 0 1.97 8.685 4.26 26.5 6.99 7.095 1.09 36.247-.36 45.5-2.26zm-449.427-9.19c13.33-1.85 18.746-4.71 13.037-6.88-10.704-4.07-49.14-6.15-59.61-3.22-10.33 2.89-14.173 5.69-10.75 7.85 4.74 2.99 41.605 4.44 57.323 2.26zm404.782-31.37c11.44-3.44 21.053-5.08 47.286-8.08 32.54-3.72 51.42-7.12 52.9-9.53.96-1.55-11.33-6.63-20.54-8.49-11.32-2.29-32.15-1.56-43.5 1.53-10.98 2.99-21.07 7.15-28.89 11.9-10.63 6.46-20.07 15.14-16.46 15.14.59 0 4.74-1.1 9.22-2.44zm-275.355-.16c3.025-.35 6.048-1.07 6.718-1.61 2.217-1.76-1.245-22.34-6.3-37.45-4.38-13.09-13.02-31.62-14.51-31.12-1.606.54-4.57 8.62-7.447 20.3-2.85 11.59-5.01 34.9-3.99 43.05 1.08 8.62 3.87 9.37 25.54 6.84zm178.503-15.39c15.313-7.41 24.46-28.52 24.48-56.5.01-14.47-2.02-27.82-6.082-39.97-3.14-9.39-7.29-17.53-8.94-17.53-.57 0-.96 6.64-.96 16.47 0 27.03-3.78 47.02-15.42 81.54-3.06 9.08-5.56 17.13-5.57 17.89-.01 1.94 6.68.94 12.5-1.88z"/></svg>
