<svg xmlns="http://www.w3.org/2000/svg" width="425.261" height="406.175"><g fill-rule="evenodd"><path stroke="#000" stroke-width=".945" d="M247.62 152.49s-48.552 18.45-80.598 25.247c-32.045 6.797-71.86-3.885-82.54-3.885-10.682 0-13.595-16.508-20.393-12.624-6.8 3.885-16.51 3.885-20.4 21.364-3.89 17.48-12.03 51.45-16.51 60.206-.53 10.076-2.5 16.533-3.03 26.837.45 13.266-5.02 29.09-5.02 29.09l-5.83 1.943s-4.86 11.652-1.95 19.42c2.91 7.77 5.82 12.625 5.82 12.625l2.91-13.595.97 18.45s4.86-6.797 4.86-11.653c0-4.855 1.94-12.624 3.88-18.45 1.94-5.826-6.8-6.797-6.8-6.797s3-5.827 5.23-27.883C29.41 261.07 32 250.567 32 250.567s0 6.797 3.883 18.45c3.88 11.653 14.563 24.277 20.39 28.16 5.824 3.885-2.916 6.8-3.887 10.683-.97 3.884 3.884 15.537 8.74 18.45 4.854 2.913 11.652 10.682 14.565 16.508 2.91 5.827 9.71 23.306 10.68 28.16.97 4.857-1.94 20.394-1.94 20.394s5.83.97 9.71.97h11.66l-1.94-7.768 4.86 7.77 4.86-.972-6.79-19.422s-4.853-22.334-8.74-32.045c-1.94-4.855-1.09-2.306-1.302-10.317 1.305-.85 7.617-5.22 11.5-9.104 3.886-3.885 9.71-13.11 9.997-13.64.285-.53 49.037 1.53 54.53 1.53 5.494 0 11.673-2.745 18.54-4.805 6.866-2.06 10.986-5.5 13.733-6.87-1.37 8.24-1.37 8.24-.68 17.85.69 9.61 3.43 21.28 4.81 26.09 1.37 4.8 13.043 35.7 13.043 35.7l.69 15.1s10.988 3.43 15.108 4.12c4.12.68 13.05-1.38 13.05-1.38v-6.87s5.496-.69 8.93-.69 4.12-6.18 4.12-6.18-2.75-15.11-3.43-19.92c-.69-4.81 2.06-21.29 5.49-31.59 3.438-10.3 10.3-27.47 11.678-41.2 1.37-13.74-4.81-46.69-4.81-46.69l-7.554-7.56"/><path fill="#fff" stroke="#000" stroke-width=".945" d="M100.504 317.57c-5.826 4.37-4.612 3.278-6.372 9.71-1.76 6.435.788 16.024 2.488 21.85 3.4 11.653 9.71 29.618 6.797 30.59-2.913.97-6.797 1.456-10.68 1.94-3.886.487-2.915-4.37-2.915-8.253 0-3.884-3.884-21.85-7.768-28.647-3.884-6.797-4.37-18.45-10.196-21.85-5.827-3.397-12.624-5.34-13.11-8.253-.485-2.913 1.942-7.283 4.37-10.68 2.428-3.4 7.77-1.944 7.77-1.944s0-5.34-1.458-9.225c-1.457-3.884-5.34 0-12.624-13.11-7.283-13.11-12.138-29.617-12.138-37.87 0-8.255 9.225-24.278 9.71-31.56.486-7.284 3.885 8.74 10.197 10.68 6.312 1.943-7.77 5.828-5.34 18.45 2.426 12.625 11.166 26.22 21.362 28.162 10.196 1.943 20.393 2.914 26.22-1.942 5.826-4.855 7.282-7.283 7.282-7.283s6.31 5.34 3.39 13.11c-2.43 26.704-11.17 41.756-17 46.126zm20.796-20.18h4.806s54.932 4.12 58.365 2.745c3.44-1.373 15.11-6.866 17.86-8.926 2.75-2.06-4.8-20.6-4.8-26.78v-24.04s4.12-4.12 6.18-.69c2.06 3.43 4.12 8.92 4.12 8.92-2.74 17.85 2.06 36.39 3.44 44.63 1.38 8.24 2.75 39.82 4.12 46.69 1.38 6.86 13.05 28.15 13.05 31.58v12.36s8.93 3.43 11.67 1.37 5.5-2.75 5.5-2.75 1.38-8.24-1.37-12.36c-2.74-4.12-3.43-9.61-4.8-16.48-1.37-6.87-1.37-19.91 0-32.27 1.38-12.36 3.44-13.74 2.06-19.23-1.37-5.5-2.74-41.2-2.74-41.2s6.87-6.87 7.55-2.75c.69 4.12 2.75 13.04 2.75 13.04s2.75-6.87 8.24-12.36c5.49-5.49 8.24-25.41 8.24-25.41l-.69-2.75-13.04-31.59-6.18-37.08s-10.3 3.43-15.79 5.49c-5.49 2.06-17.16 4.803-23.34 6.863-6.18 2.06-12.36 2.06-12.36 2.06l-7.55 9.61c-4.12 7.55 3.44 9.61 6.18 24.72 2.75 15.102-4.12 17.85-9.61 19.222-5.49 1.37-10.3 7.55-15.79 19.22-5.493 11.67-7.553 20.6-13.05 24.72-5.49 4.12-12.36 2.06-18.54 0s-6.86-.69-6.86-.69-.69-6.18-1.38 2.06-6.18 21.97-6.18 21.97z"/><path stroke="#000" stroke-width=".576" d="M158.69 109.222s13.065-17.11 19.598-21.155c6.533-4.044 18.666-7.777 18.666-7.777s12.444-.312 19.288 1.244c6.844 1.555 15.244 6.222 15.244 6.222s3.11-2.49 5.29-3.11c2.176-.623 4.976-1.557 4.976-1.557s1.245-18.98 1.556-20.54c.31-1.56.31-16.8 1.244-22.4.933-5.6 3.422-14.31 5.6-14.62 2.178-.31 7.777 12.13 8.088 15.24.31 3.11 4.978 26.44 6.533 30.48 1.556 4.04 3.734 7.46 3.734 7.46s9.955-2.18 17.42-2.18c7.467 0 19.29 1.55 19.29 1.55s1.243.93 3.11.31c1.867-.62 2.178-.93 2.178-.93S320.77 61.9 320.77 48.22c0-13.69-5.6-35.16-5.6-35.16s-1.24-2.488 0-2.8c1.25-.31 9.648 4.667 12.448 12.133 2.8 7.47 10.577 19.6 11.51 25.51.934 5.91-2.8 24.58-5.91 28-3.11 3.42-5.29 7.78-3.733 9.02 1.555 1.25 4.044 1.25 6.222-.31 2.177-1.554 20.843-17.11 32.976-20.22 12.134-3.11 14.31-2.8 18.667-2.8 4.354 0 9.643 3.734 9.643 3.734s7.778.93 12.445 5.6c4.666 4.666 7.466 9.02 4.044 12.444-3.423 3.42-8.71 10.27-10.89 10.27-2.177 0-1.866-.62-1.866-.62s-10.577 9.02-22.088 10.27c-11.51 1.25-19.288 1.56-25.82.31-6.534-1.24-9.956-2.8-9.956-2.8s4.976 12.45 5.6 16.8c.62 4.36 4.665 20.54 4.976 26.13.31 5.6 2.8 33.29 2.8 33.29s3.11 24.58 4.355 30.49c1.247 5.91 4.358 26.13 2.49 34.84-1.865 8.71-2.176 12.76-4.665 15.56-2.49 2.8-6.844 6.84-10.266 7.47-3.424.63-11.823.31-18.045 2.8-6.222 2.49-23.644 12.45-29.554 12.45s-12.753-7.15-12.753-7.15-4.98-6.842-8.09-10.264c-3.11-3.42-20.53-16.485-27.69-34.53-7.156-18.043-10.578-49.774-10.578-49.774s-1.866-31.11-5.288-42.62c-3.422-11.51-8.4-25.2-8.4-25.2s-15.554 14-35.464 12.76c-19.91-1.24-33.6-14.62-33.6-14.62z"/><path fill="#fff" d="M172.377 109.844l20.844 6.222s17.43-6.533 20.23-7.467c2.8-.94 4.05-2.49 6.22-3.12 2.18-.62 6.22-1.87 6.22-1.87l-.31-4.36s-4.98-.94-11.82 0c-6.84.93-36.08 7.46-38.57 8.09-2.49.62-2.8 2.49-2.8 2.49zm16.49-17.734l32.042-.31s-7.16-3.733-15.87-3.733-16.18 4.044-16.18 4.044zm74.35-11.82l-4.354-9.022s-.312-4.045-1.556-9.022c-1.244-4.978-3.11-7.778-3.11-7.778s-2.49 3.423-2.8 6.222c-.312 2.8-.312 10.89-.623 12.755-.31 1.867-2.178 4.045-.31 6.222 1.866 2.178 3.11 2.8 4.665 2.8 1.55 0 5.28-1.866 5.28-1.866l2.8-.31zm53.2-3.11s5.91 1.554 7.465.31c1.555-1.245 4.666-5.91 4.666-5.91s.934-9.645 1.556-14.623c.622-4.977 1.244-8.088 1.244-8.088s-.933-2.8-1.555-4.98c-.622-2.18-2.178-5.29-2.178-5.29l-2.178-6.54s.623 6.53 0 8.71c-.622 2.18-.31 8.71-.933 12.44-.622 3.73-2.8 14.93-4.355 17.11-1.56 2.18-3.74 6.84-3.74 6.84zm30.175 16.798s1.244-4.356 4.667-5.6c3.42-1.244 16.79-3.11 19.91-3.11h11.19s2.49-2.18 6.22-2.18h9.02s-3.42 4.046-5.6 5.29c-2.18 1.244-5.91 1.556-7.47 3.11-1.56 1.557-8.4 4.668-15.25 5.29-6.85.622-17.11.31-17.11.31l-5.6-3.11zM351.88 83.4s9.334-4.666 17.733-5.6c8.4-.933 24.888-1.555 24.888-1.555s-3.73-5.6-16.17-4.355c-12.44 1.244-19.6 4.044-22.4 6.222-2.8 2.178-4.04 5.29-4.04 5.29zm-72.796 167.37s10.577-15.865 29.554-22.71c18.977-6.843 39.51-4.043 39.51-4.043s.933-5.91-.312-10.267l-1.244-4.355-.933-1.867s0-10.266-.94-15.865l-6.85-41.065s.31-11.51-.94-16.177c-1.25-4.66-4.67-15.24-4.67-17.42 0-2.18.93-3.73.93-3.73s-1.56-5.6-2.49-8.09c-.93-2.48-1.56-4.66-1.56-4.66s-14-11.2-26.13-13.37c-12.14-2.18-25.51 0-29.56 0-4.04 0-21.78 4.05-23.95 4.05-2.18 0-14 1.56-14.62 6.54-.62 4.98 7.46 19.29 7.46 19.29s2.18 10.58 3.42 13.69c1.24 3.11 4.67 18.36 5.29 26.76.62 8.4 4.04 44.18 5.6 50.4 1.55 6.23 3.42 17.74 7.15 24.27 3.73 6.54 7.78 12.45 9.95 14.31 2.18 1.87 5.29 4.36 5.29 4.36z"/><path stroke="#000" stroke-width=".576" d="M274.417 143.753s-6.222-.933-10.888 3.734c-4.67 4.666-5.92 5.91-4.98 8.71.93 2.8.93 4.667 2.8 5.91 1.86 1.246 3.73 3.112 5.6 3.112 1.86 0 8.4-4.05 10.57-5.29 2.18-1.25 5.29-4.98 4.04-7.47-1.25-2.49-1.56-5.6-3.42-6.85-1.87-1.25-1.87-1.25-3.74-1.87zm35.777-9.333c4.666.623 6.222-.622 6.844-2.488.622-1.867 1.866-7.467-3.733-7.467-5.6 0-6.845 1.867-6.845 4.667s1.245 4.355 3.734 5.29z"/><path stroke="#000" stroke-width=".887" d="M137.446 338.37l3.766 7.77s3.434 10.3 6.18 15.794c2.747 5.493 4.12 19.226 5.493 21.973 1.374 2.746-4.806 2.746-4.806 2.746l-1.38-5.493-1.38 6.18s-4.12 2.747-8.24 2.06c-4.12-.687-13.73-.687-14.42-3.433-.69-2.747 4.12-12.36 4.12-12.36l2.74-8.24-2.75-4.12-5.82-20.29c-.33-.376-2.19-4.157-6.72-9.42-3.75-4.352-6.63-7.536-11.01-9.41l3.69-6.295 9.28-11.932 28.28.883s-.44 5.746-1.77 11.933c-1.33 6.187-8.84 11.932-8.84 11.932l3.53 9.723z"/></g></svg>
