<svg xmlns="http://www.w3.org/2000/svg" viewBox="0 0 16 16"><path fill="#000" d="M8.797 15.975c-.426-.078-.742-.264-1.215-.715-.543-.517-.997-1.145-1.447-2-.56-1.062-.768-1.874-1.037-4.044-.202-1.627-.342-2.294-.628-2.998-.095-.234-.113-.248-.216-.18-.032.023-.14.08-.237.127-.818.39-1.85.52-2.73.34C.943 6.432.594 6.297.35 6.14c-.11-.07-.332-.264-.332-.29 0-.038.632-.73.89-.972.313-.296.526-.445.835-.584.334-.15.5-.185.893-.185.357 0 .426.01 1.125.16.31.07.38.08.67.08.29 0 .34-.01.47-.05.17-.06.19-.07.23-.19.1-.27.14-.59.18-1.47.04-.75.07-1.07.15-1.35.05-.19.17-.44.23-.49.04-.03.05-.03.14.07.13.13.24.32.33.57.1.26.14.42.26 1.07.12.59.22.99.32 1.2l.07.14h.51c.28 0 .77.01 1.09.02.69.03 1.01.01 1.09-.05.08-.06.24-.32.32-.507.21-.495.3-1.21.25-1.94-.04-.416-.1-.88-.18-1.17-.06-.247-.04-.26.16-.123 1 .68 1.46 2.314 1 3.57-.09.24-.13.326-.25.515-.04.07-.07.13-.06.14.026.03.33-.08.56-.19.12-.06.41-.22.635-.36.5-.31.62-.38.88-.51.68-.325 1.36-.37 2.1-.15.39.125.7.29.89.5.15.16.18.237.18.435 0 .145-.01.19-.07.29-.27.53-1.35 1.014-2.6 1.175-.53.066-1.28.036-1.64-.067-.06-.02-.117-.025-.128-.015-.01.01.07.39.186.864.597 2.49.825 3.81.918 5.31.07 1.11-.025 2.283-.25 3.11l-.03.104-.25.03c-.47.067-.77.178-1.6.6-.6.307-.78.388-1.08.47-.18.05-.52.085-.643.06zM7.544 14.05c.07-.043.358-.233.64-.422.608-.408.837-.543 1.225-.722.66-.304 1.34-.432 2.12-.4.22.01.34.007.34-.007s-.04-.27-.09-.57c-.09-.52-.17-1.13-.41-2.88-.13-.91-.26-1.71-.37-2.33-.12-.59-.31-1.41-.35-1.47-.06-.08-.4-.31-.63-.42-.63-.3-1.43-.44-2.42-.41-.7.02-1.34.11-1.98.28-.41.11-.91.29-.91.34 0 0 .04.08.09.16.11.2.31.67.392.95.22.7.352 1.43.54 2.98.16 1.35.252 1.95.38 2.5.2.85.443 1.46.796 1.96.157.22.41.5.456.5.01 0 .08-.036.15-.078zm-.998-4.983c-.087-.035-.2-.148-.26-.262-.114-.21-.038-.472.197-.68.385-.337.883-.345 1.07-.016.072.12.12.38.097.52-.012.08-.026.1-.075.12-.032.01-.145.07-.25.12-.107.05-.245.12-.308.14-.137.05-.394.07-.47.04zM9.46 7.325c-.017-.013-.058-.06-.09-.102-.034-.043-.08-.084-.103-.09-.06-.02-.067-.05-.035-.17.072-.27.47-.403.662-.22.06.057.065.068.05.172-.02.155-.09.284-.186.344-.104.06-.258.09-.3.06zM2.53 6.062c.508-.1 1.04-.327 1.514-.643.09-.06.162-.12.162-.14 0-.04-.186-.06-.568-.06-.626 0-1.205.12-2.206.46-.21.07-.393.14-.41.15-.026.02-.01.04.1.09.164.08.4.15.59.17.197.02.57 0 .817-.04zm10.857-1.055c.437-.085.796-.22 1.1-.414.196-.123.41-.316.376-.337-.01-.006-.076-.004-.142.007-.12.02-.48.045-1.2.086-.69.04-1.05.1-1.35.24-.16.07-.38.25-.38.31 0 .04.2.09.59.15.16.02.81-.01 1.02-.05zM3.372 4.813c.297-.04.418-.1.29-.146-.238-.086-1.094-.13-1.328-.068-.23.06-.316.12-.24.16.106.06.928.09 1.278.05zm9.02-.664c.255-.08.47-.11 1.054-.18.725-.08 1.146-.15 1.18-.2.02-.04-.254-.14-.46-.18-.25-.05-.715-.04-.968.03-.245.06-.47.15-.644.25-.237.13-.447.32-.367.32.013 0 .106-.02.206-.05zm-6.136-.01c.068-.01.135-.03.15-.04.05-.04-.028-.48-.14-.79-.098-.28-.29-.67-.324-.66-.036.01-.102.18-.166.43-.063.24-.11.73-.09.91.025.18.088.2.57.14zm3.978-.33c.34-.16.545-.61.546-1.2 0-.31-.045-.59-.136-.85-.07-.2-.162-.37-.2-.37-.012 0-.02.14-.02.34 0 .57-.085.99-.344 1.72-.068.19-.124.36-.124.38 0 .04.15.02.278-.04z"/></svg>
